<?xml version="1.0" encoding="UTF-8" standalone="no"?>
<!-- Generator: Adobe Illustrator 28.7.0, SVG Export Plug-In . SVG Version: 9.03 Build 54978)  -->

<svg
   version="1.0"
   x="0px"
   y="0px"
   viewBox="0 0 512 528.80199"
   xml:space="preserve"
   id="svg106"
   width="512"
   height="528.802"
   xmlns="http://www.w3.org/2000/svg"
   xmlns:svg="http://www.w3.org/2000/svg"><defs
   id="defs110" />
<style
   type="text/css"
   id="style2">
	.st0{fill:#6E55DC;}
	.st1{fill:#FCCC12;}
	.st2{fill:#EF1541;}
	.st3{fill:#FF7112;}
	.st4{fill:#05AC3F;}
	.st5{fill:#069DE0;}
	.st6{fill:none;}
	.st7{fill-rule:evenodd;clip-rule:evenodd;}
	.st8{display:none;}
	.st9{display:inline;}
	.st10{fill:#FFFFFF;}
	.st11{fill-rule:evenodd;clip-rule:evenodd;fill:#FFFFFF;}
	.st12{display:inline;fill:none;}
</style>
<g
   id="Layer_1">
	
	
<g
   id="g1681"
   transform="matrix(1.0130128,0,0,1.1036391,-4.5468966,-1.0229014)"><g
     id="g26"
     transform="matrix(18.246319,0,0,17.007279,-17.407094,-14.841021)">
			
			
			
			<path
   class="st2"
   d="M 14.6,3.6 C 14.8,1.9 13.3,0.6 11.7,1 10.1,1.4 9.5,3.1 10,4.3 l 3.4,7.7 z"
   id="path12" />
			<path
   class="st4"
   d="m 24.1,14.4 c 1.8,0 3,-1.4 2.5,-3.2 C 26.2,10 24.6,8.9 22.9,10 l -6.6,4.4 z"
   id="path18" />
			
		<path
   class="st5"
   d="M 23.6,8.7 C 25.3,7.5 24.7,5.6 24,4.9 22.9,3.9 20.9,4.1 20.1,5.8 l -3.2,7.4 z"
   id="path22" /><path
   class="st3"
   d="M 13.1,13.2 9.9,5.8 C 9.1,4.1 7.1,3.9 6,4.9 5.2,5.6 4.6,7.6 6.4,8.7 Z"
   id="path14" /><path
   class="st1"
   d="M 13.7,14.4 7.1,10 C 5.4,8.9 3.8,10 3.4,11.2 3,13 4.1,14.4 5.9,14.4 Z"
   id="path8" /><path
   class="st0"
   d="M 20,4.3 16.6,12 15.6,5.3 C 15.5,4.4 17,3.8 17,3.8 16.9,3.5 16.4,3.5 16.4,3.5 h -1 v 0 C 15.2,1.9 16.7,0.7 18.3,1 19.9,1.4 20.5,3.1 20,4.3 Z"
   id="path4" /></g><g
     id="g36"
     transform="matrix(18.246319,0,0,17.007279,-17.407094,-14.841021)">
				<polygon
   points="14.4,16.1 14.4,22.5 12.9,22.5 9.8,18.3 9.8,22.5 8.4,22.5 8.4,16.1 9.9,16.1 13,20.2 13,16.1 "
   id="polygon28" />
				<path
   d="m 21.6,20.5 c 0,1.8 -1.4,2 -2.3,2 h -3.7 v -6.4 h 3.7 c 1.1,0 2.1,0.7 2.1,1.9 0,0.6 -0.4,0.9 -0.7,1.1 0.5,0.2 0.9,0.6 0.9,1.4 z M 17,17.3 v 1.2 c 0,0 2,0 2.2,0 0.4,0 0.8,-0.2 0.8,-0.6 0,-0.5 -0.3,-0.6 -0.8,-0.6 -0.3,0 -2.2,0 -2.2,0 z m 3.2,3.2 c 0,-0.6 -0.5,-0.8 -1,-0.8 -0.5,0 -2.2,0 -2.2,0 v 1.5 c 0,0 1.8,0 2.2,0 0.4,0 1,-0.1 1,-0.7 z"
   id="path30" />
				<path
   d="m 27.9,20.4 v 0 0 c 0,0 0,0 0,0 v 0 c -0.7,0.4 -1.1,0.8 -2,0.8 v 0 c -1.3,0 -2,-1 -2,-1.9 0,-1 0.9,-1.9 2.1,-1.9 0.9,0 1.4,0.5 1.6,0.7 v 0 0 0 0 0 0 0 0 l 1,-1 c -0.1,-0.1 -1,-1.2 -2.7,-1.2 -1.9,0 -3.6,1.5 -3.6,3.4 0,1.8 1.6,3.4 3.6,3.4 1.5,0 2.3,-0.6 3,-1.2 z"
   id="path32" />
				<path
   d="m 6.8,20.4 v 0 0 c 0,0 0,0 0,0 v 0 c -0.7,0.4 -1.1,0.8 -2,0.8 v 0 c -1.3,0 -2,-1 -2,-1.9 0,-1 0.9,-1.9 2.1,-1.9 0.9,0 1.4,0.5 1.6,0.7 v 0 0 0 0 0 0 0 0 l 1,-1 C 7.4,17 6.5,15.9 4.8,15.9 c -1.9,0 -3.6,1.5 -3.6,3.4 0,1.8 1.6,3.4 3.6,3.4 1.5,0 2.3,-0.6 3,-1.2 z"
   id="path34" />
			</g><g
     id="g46"
     transform="matrix(18.246319,0,0,17.007279,-17.407094,-14.841021)">
				<polygon
   class="st7"
   points="8.7,24.9 6.3,24.9 6.3,28.9 4.6,28.9 4.6,24.9 2.2,24.9 2.2,24.1 8.7,24.1 "
   id="polygon38" />
				<polygon
   class="st7"
   points="9.9,24.1 11.7,24.1 13.4,27.8 15.2,24.1 16.9,24.1 14.2,28.9 12.6,28.9 "
   id="polygon40" />
				<path
   class="st7"
   d="m 18,24.9 h 0.2 c 1.5,0 1.9,-0.5 2,-0.8 h 1.3 v 4.8 H 19.9 V 25.6 H 18 Z"
   id="path42" />
				<path
   class="st7"
   d="m 25.491953,29.1 c -2.1,0 -2.8,-0.818993 -2.8,-1.53561 0,-0.204749 0,-0.921367 1.2,-1.228489 -0.6,-0.204749 -1,-0.51187 -1,-0.921366 0,-0.818993 1.1,-1.330863 2.5,-1.330863 0,0 0,0 0,0 1.6,0 2.5,0.614244 2.5,1.330863 0,0.409496 -0.3,0.818992 -0.9,1.02374 0.8,0.204748 1.2,0.51187 1.2,1.228489 0,0.409496 -0.6,1.433236 -2.7,1.433236 z m 0,-4.299709 c -0.7,0 -1,0.307121 -1,0.614244 0,0.307122 0.3,0.614244 1,0.614244 0,0 0,0 0,0 0.6,0 1,-0.307122 1,-0.614244 0,-0.409497 -0.5,-0.614244 -1,-0.614244 0,0 0,0 0,0 z m 0,1.945106 c 0,0 0,0 0,0 -0.6,0 -1.1,0.204748 -1.1,0.716618 0,0.511871 0.4,0.818992 1.1,0.818992 0,0 0,0 0,0 0.8,0 1.1,-0.409496 1.1,-0.818992 0,-0.307122 -0.3,-0.716618 -1.1,-0.716618 z"
   id="path44"
   style="stroke-width:1.0118" />
			<g
   id="g968"
   transform="matrix(0.03685961,0,0,0.03707742,3.3378591,1.1913883)"
   style="fill:#000000">
				<path
   id="path12-6"
   class="st6"
   d="m 140,401.6 v 174.1 h 38.8 V 464.9 l 82.8,110.7 h 40.8 l 0.5,-0.6 -0.3,-173.5 H 263.1 V 510.7 L 181.4,401.5 H 140 Z"
   style="fill:#000000" />
				<path
   id="path14-1"
   class="st6"
   d="m 335.6,401.6 v 174.1 h 38.8 64.5 c 24.4,0 58.9,-9 58.9,-53.6 0,-20.3 -7.8,-31.2 -25.2,-39.9 12.6,-7.3 19.3,-14.4 19.3,-31.6 0,-33.5 -28.6,-48.9 -53,-48.9 H 335.6 Z m 38.8,34.6 H 437 c 9,0 15,7.4 15,15.3 0,8 -8.2,14.9 -15,14.9 h -1.1 l -61.5,0.3 z m 0,64.4 h 58.8 1.1 c 13.8,0 23.4,7.9 23.4,20.1 0,12.7 -9.9,19 -23.4,19 h -59.9 z"
   style="fill:#000000" />
				<path
   id="path16"
   class="st6"
   d="m 612.2,396.9 c -52.4,0 -94.8,42 -94.8,91.6 0,40.5 29.7,89.5 95.9,91.6 39.8,0 60.7,-17.2 80.2,-33.6 L 666.1,515 c -9.2,10.9 -31,23.4 -50.2,23.4 -35.8,0 -56.5,-24.2 -56.5,-48.8 0,-28.3 23.6,-51.2 53.9,-51.2 17,0 32.6,8.1 44.7,20.8 l 28.8,-28.8 c -16.7,-20.3 -46.5,-33.5 -74.6,-33.5 z"
   style="fill:#000000" />
				<path
   id="path16-7"
   class="st6"
   d="m 36.8,396.7 c -52.4,0 -94.8,42 -94.8,91.6 0,40.5 29.7,89.5 95.9,91.6 39.8,0 60.7,-17.2 80.2,-33.6 L 90.6,514.9 c -9.2,10.9 -31,23.4 -50.2,23.4 -35.8,0 -56.5,-24.2 -56.5,-48.8 0,-28.3 23.6,-51.2 53.9,-51.2 17,0 32.6,8.1 44.7,20.8 l 28.8,-28.8 C 94.7,410 65,396.7 36.8,396.7 Z"
   style="fill:#000000" />
			</g></g></g></g>

</svg>
