<?xml version="1.0" encoding="utf-8"?>
<!-- Generator: Adobe Illustrator 16.0.0, SVG Export Plug-In . SVG Version: 6.00 Build 0)  -->
<!DOCTYPE svg PUBLIC "-//W3C//DTD SVG 1.1//EN" "http://www.w3.org/Graphics/SVG/1.1/DTD/svg11.dtd">
<svg version="1.1"
	 id="Layer_1" xmlns:cc="http://creativecommons.org/ns#" xmlns:rdf="http://www.w3.org/1999/02/22-rdf-syntax-ns#" xmlns:dc="http://purl.org/dc/elements/1.1/"
	 xmlns="http://www.w3.org/2000/svg" xmlns:xlink="http://www.w3.org/1999/xlink" x="0px" y="0px" width="1000px"
	 height="284.533px" viewBox="-199.998 -56.901 1000 284.533" enable-background="new -199.998 -56.901 1000 284.533"
	 xml:space="preserve">
<g transform="translate(204.33037,-426.49952)">
	<path fill="#512060" d="M-404.327,404.357v149.289h42.215v-49.641l39.873,0.412v-39.873h-40.655v-20.342h50.818l-3.137-39.845
		H-404.327L-404.327,404.357z"/>
	<path fill="#512060" d="M-144.809,404.341l17.957,31.256l17.8-31.385h45.536l-40.668,71.726l44.175,77.789h-46.9l-20.697-37.588
		l-20.709,37.588h-46.133l44.97-77.789l-42.214-71.598H-144.809z"/>
	<path fill="#512060" d="M-230.712,511.041c0,5.167-4.741,9.369-10.618,9.369h-2.201c-5.862,0-10.646-4.201-10.646-9.369v-64.118
		c0-5.181,4.784-9.383,10.646-9.383h2.201c5.876,0,10.618,4.202,10.618,9.383V511.041z M-242.451,406.667
		c-39.93,0-72.308,32.393-72.308,72.323c0,39.916,32.378,72.279,72.308,72.279c39.93,0,72.308-32.365,72.308-72.266
		C-170.144,439.073-202.521,406.667-242.451,406.667"/>
	<path fill="#E95D2F" d="M349.668,587.458H14.77v66.673l-56.211-100.602V369.598h391.114v217.866L349.668,587.458z"/>
	<path fill="#F2EDDC" d="M62.276,517.624c0,7.338,0.753,9.086,8.674,9.086h5.224v15.655H15.304V526.71h5.238
		c7.708,0,9.07-1.748,9.07-9.086v-77.845c0-9.865-0.979-11.426-8.702-11.426h-5.607v-15.628h46.971V517.624L62.276,517.624z"/>
	<path fill="#F2EDDC" d="M109.669,411.558c8.899,0,16.04,7.168,16.04,16.04c0,8.886-7.141,16.04-16.04,16.04
		c-9.07,0-16.026-6.956-16.026-16.04C93.643,418.726,100.797,411.558,109.669,411.558 M95.19,477.45
		c0-8.104-0.198-10.248-8.701-10.248h-6.175v-16.026h47.539v66.459c0,7.552,1.335,9.084,8.687,9.084h4.826v15.657H80.314V526.72
		h5.777c7.736,0,9.099-1.745,9.099-9.084v-39.021L95.19,477.45L95.19,477.45z"/>
	<path fill="#F2EDDC" d="M146.068,525.941h4.643c9.651,0,9.651-3.279,9.651-13.713v-45.026h-14.294v-16.025h14.294v-5.224
		c0-10.419,0.568-18.155,5.622-24.345c5.977-7.339,17.374-12.364,31.469-12.364c19.717,0,31.697,9.269,31.697,21.448
		c0,8.701-5.792,14.493-13.91,14.493c-7.538,0-13.145-5.224-13.145-12.364c0-4.258,2.525-7.324,7.14-9.666
		c-2.3-0.383-4.443-0.568-6.175-0.568c-8.503,0-10.433,4.826-10.433,16.225v12.364h16.607v16.025h-16.607v45.026
		c0,11.214,0.382,13.712,9.85,13.712h6.758v16.438h-63.167v-16.438V525.941z"/>
	<path fill="#F2EDDC" d="M276.433,485.174v-0.767c0-12.748-5.223-19.518-15.074-19.518c-9.084,0-14.507,6.956-14.705,20.285h29.781
		H276.433z M307.536,511.462c-5.791,22.597-21.449,34.181-46.177,34.181c-29.553,0-48.887-19.319-48.887-47.921
		c0-30.518,18.567-49.441,48.12-49.441c30.547,0,48.491,18.155,48.491,49.071v3.478h-62.8v1.562
		c0,16.792,6.389,25.096,18.752,25.096c11.399,0,18.354-5.791,19.503-16.025h22.995H307.536z"/>
	<path fill="#E85D2D" stroke="#E85D2D" stroke-width="8.0059" d="M402.816,403.107v151.758"/>
	<path fill="#E85D2D" d="M505.267,510.424v-27.026H463.69v27.026h-12.122v-62.854h12.122v25.948h41.577v-25.948h12.122v62.854
		H505.267z"/>
	<path fill="#E85D2D" d="M558.766,457.441h-18.95v43.094h19.845c14.734,0,24.245-5.834,24.245-21.633
		c0-16.068-10.505-21.463-25.14-21.463 M560.47,510.414h-32.323v-62.855h30.619c20.652,0,36.905,8.631,36.905,31.341
		C595.672,500.902,581.038,510.414,560.47,510.414"/>
</g>
</svg>
